<svg width="24px" height="26px" viewBox="0 0 24 26" version="1.1" xmlns="http://www.w3.org/2000/svg" xmlns:xlink="http://www.w3.org/1999/xlink">
    <g id="Page-1" stroke="none" stroke-width="1" fill="none" fill-rule="evenodd">
        <g id="个人ID设定页" transform="translate(-599.000000, -369.000000)" fill="#FFFFFF" fill-rule="nonzero">
            <g id="Group" transform="translate(599.000000, 369.000000)">
                <path d="M18,0 C19.1947363,0.00104426519 20.3401217,0.48509728 21.1841303,1.34565063 C22.0281389,2.20620398 22.5016178,3.37274923 22.5003852,4.58860604 C22.5014123,5.80432642 22.0278427,6.97066923 21.1838564,7.83105214 C20.33987,8.69143505 19.194602,9.17537989 18,9.17642424 C16.7958674,9.17769766 15.6418657,8.68590313 14.7979343,7.81181819 L11.6624506,10.2085455 C11.8776536,10.8343576 11.9913969,11.4916268 11.9992248,12.1546061 L17.1514824,13.9044848 C17.8486051,12.8598735 19.0089931,12.2346044 20.2498048,12.2349697 C21.2453735,12.2358051 22.1998289,12.6391396 22.9031489,13.3562219 C23.6064689,14.0733042 24.0010251,15.0453784 24,16.0585455 C24.0010251,17.0717125 23.6064689,18.0437867 22.9031489,18.760869 C22.1998289,19.4779513 21.2453735,19.8812858 20.2498048,19.8821212 C18.1907621,19.880035 16.5177982,18.190154 16.5003857,16.0947879 L11.599741,14.4370909 C11.2651965,15.3196256 10.7344378,16.1113648 10.0490314,16.750303 L12.3723861,19.9065455 C13.2278669,19.7970605 14.0883201,20.0670592 14.7346759,20.6478004 C15.3810317,21.2285416 15.7509289,22.0639945 15.7501922,22.9414545 C15.7514756,24.62903 14.4084547,25.9982603 12.7501925,26 C11.0919303,25.9982603 9.74890935,24.62903 9.75019272,22.9414545 C9.75019272,22.2244848 9.99174109,21.5658182 10.3958701,21.0450303 L8.1251606,17.9581212 C7.44621359,18.2199703 6.7260656,18.3537305 6,18.3528485 C2.6864514,18.3528485 0,15.6141818 0,12.2349697 C0,8.85654544 2.6864514,6.11787878 6,6.11787878 C7.80387032,6.11787878 9.42193471,6.92939394 10.5212894,8.21363635 L13.6621924,5.81296968 C13.554159,5.41414249 13.4994726,5.00230956 13.4996118,4.58860604 C13.4983792,3.37274923 13.9718581,2.20620398 14.8158667,1.34565063 C15.6598753,0.48509728 16.8052607,0.00104426519 18,0 Z" id="Path"></path>
            </g>
        </g>
    </g>
</svg>